<svg width="24" height="25" viewBox="0 0 24 25" fill="none" xmlns="http://www.w3.org/2000/svg">
<g clip-path="url(#clip0_3684_2077)">
<path d="M19 4.35547H17.9C17.6679 3.22688 17.0538 2.21281 16.1613 1.48419C15.2687 0.755559 14.1522 0.356923 13 0.355469L11 0.355469C9.8478 0.356923 8.73132 0.755559 7.83875 1.48419C6.94618 2.21281 6.3321 3.22688 6.1 4.35547H5C3.67441 4.35706 2.40356 4.88435 1.46622 5.82169C0.528882 6.75903 0.00158786 8.02987 0 9.35547L0 12.3555H24V9.35547C23.9984 8.02987 23.4711 6.75903 22.5338 5.82169C21.5964 4.88435 20.3256 4.35706 19 4.35547ZM8.184 4.35547C8.39008 3.77256 8.77123 3.26756 9.2753 2.90956C9.77937 2.55155 10.3817 2.35803 11 2.35547H13C13.6183 2.35803 14.2206 2.55155 14.7247 2.90956C15.2288 3.26756 15.6099 3.77256 15.816 4.35547H8.184Z" fill="#0A9F8B"/>
<path d="M13 15.3555C13 15.6207 12.8946 15.875 12.7071 16.0626C12.5196 16.2501 12.2652 16.3555 12 16.3555C11.7348 16.3555 11.4804 16.2501 11.2929 16.0626C11.1054 15.875 11 15.6207 11 15.3555V14.3555H0V19.3555C0.00158786 20.681 0.528882 21.9519 1.46622 22.8892C2.40356 23.8266 3.67441 24.3539 5 24.3554H19C20.3256 24.3539 21.5964 23.8266 22.5338 22.8892C23.4711 21.9519 23.9984 20.681 24 19.3555V14.3555H13V15.3555Z" fill="#0A9F8B"/>
</g>
<defs>
<clipPath id="clip0_3684_2077">
<rect width="24" height="24" fill="white" transform="translate(0 0.355469)"/>
</clipPath>
</defs>
</svg>
