<svg width="25" height="25" viewBox="0 0 25 25" fill="none" xmlns="http://www.w3.org/2000/svg">
<g clip-path="url(#clip0_3684_2082)">
<path d="M5.33262 19.3555H11.3326V21.3555H7.33262C7.0674 21.3555 6.81305 21.4608 6.62551 21.6483C6.43797 21.8359 6.33262 22.0902 6.33262 22.3555C6.33262 22.6207 6.43797 22.875 6.62551 23.0626C6.81305 23.2501 7.0674 23.3555 7.33262 23.3555H17.3326C17.5978 23.3555 17.8522 23.2501 18.0397 23.0626C18.2273 22.875 18.3326 22.6207 18.3326 22.3555C18.3326 22.0902 18.2273 21.8359 18.0397 21.6483C17.8522 21.4608 17.5978 21.3555 17.3326 21.3555H13.3326V19.3555H19.3326C20.4848 19.354 21.6013 18.9554 22.4939 18.2267C23.3864 17.4981 24.0005 16.4841 24.2326 15.3555H0.432617C0.664714 16.4841 1.2788 17.4981 2.17137 18.2267C3.06394 18.9554 4.18041 19.354 5.33262 19.3555Z" fill="#3BB2A2"/>
<path d="M19.333 1.35547H5.33301C4.00741 1.35706 2.73657 1.88435 1.79923 2.82169C0.86189 3.75903 0.334596 5.02987 0.333008 6.35547L0.333008 13.3555H24.333V6.35547C24.3314 5.02987 23.8041 3.75903 22.8668 2.82169C21.9295 1.88435 20.6586 1.35706 19.333 1.35547Z" fill="#3BB2A2"/>
</g>
<defs>
<clipPath id="clip0_3684_2082">
<rect width="24" height="24" fill="white" transform="translate(0.333008 0.355469)"/>
</clipPath>
</defs>
</svg>
