<svg width="25" height="25" viewBox="0 0 25 25" fill="none" xmlns="http://www.w3.org/2000/svg">
<path d="M19.667 9.35547C19.667 13.2215 16.533 16.3555 12.667 16.3555C8.801 16.3555 5.66699 13.2215 5.66699 9.35547C5.66699 5.48948 8.801 2.35547 12.667 2.35547C16.533 2.35547 19.667 5.48948 19.667 9.35547Z" fill="#3BB2A2"/>
<path d="M7.76 16.2969L7.38123 17.6784C6.75289 19.9703 6.43872 21.1162 6.85796 21.7435C7.00489 21.9634 7.20199 22.1398 7.43071 22.2563C8.08334 22.5886 9.09099 22.0635 11.1063 21.0134C11.7769 20.664 12.1122 20.4893 12.4684 20.4514C12.6005 20.4373 12.7335 20.4373 12.8656 20.4514C13.2218 20.4893 13.5571 20.664 14.2277 21.0134C16.243 22.0635 17.2506 22.5886 17.9033 22.2563C18.132 22.1398 18.3291 21.9634 18.476 21.7435C18.8953 21.1162 18.5811 19.9703 17.9528 17.6784L17.574 16.2969C16.1878 17.2785 14.4948 17.8555 12.667 17.8555C10.8392 17.8555 9.14615 17.2785 7.76 16.2969Z" fill="#3BB2A2"/>
</svg>
