<svg width="25" height="25" viewBox="0 0 25 25" fill="none" xmlns="http://www.w3.org/2000/svg">
<g clip-path="url(#clip0_3684_2115)">
<path d="M5.1665 19.5C3.84091 19.4984 2.57006 18.9711 1.63272 18.0338C0.695386 17.0964 0.168092 15.8256 0.166504 14.5L0.166504 10.5C0.168092 9.17441 0.695386 7.90356 1.63272 6.96622C2.57006 6.02888 3.84091 5.50159 5.1665 5.5V19.5ZM7.1665 5.5H17.1665V19.5H7.1665V5.5ZM11.1665 14.5C11.1665 14.3022 11.1079 14.1089 10.998 13.9444C10.8881 13.78 10.7319 13.6518 10.5492 13.5761C10.3665 13.5004 10.1654 13.4806 9.97141 13.5192C9.77743 13.5578 9.59925 13.653 9.4594 13.7929C9.31954 13.9327 9.2243 14.1109 9.18572 14.3049C9.14713 14.4989 9.16694 14.7 9.24262 14.8827C9.31831 15.0654 9.44648 15.2216 9.61093 15.3315C9.77538 15.4414 9.96872 15.5 10.1665 15.5C10.4317 15.5 10.6861 15.3946 10.8736 15.2071C11.0611 15.0196 11.1665 14.7652 11.1665 14.5ZM13.1665 10.5C13.1665 10.6978 13.2252 10.8911 13.335 11.0556C13.4449 11.22 13.6011 11.3482 13.7838 11.4239C13.9665 11.4996 14.1676 11.5194 14.3616 11.4808C14.5556 11.4422 14.7338 11.347 14.8736 11.2071C15.0135 11.0673 15.1087 10.8891 15.1473 10.6951C15.1859 10.5011 15.1661 10.3 15.0904 10.1173C15.0147 9.93459 14.8865 9.77841 14.7221 9.66853C14.5576 9.55865 14.3643 9.5 14.1665 9.5C13.9013 9.5 13.6469 9.60536 13.4594 9.79289C13.2719 9.98043 13.1665 10.2348 13.1665 10.5ZM13.1665 14.5C13.1665 14.6978 13.2252 14.8911 13.335 15.0556C13.4449 15.22 13.6011 15.3482 13.7838 15.4239C13.9665 15.4996 14.1676 15.5194 14.3616 15.4808C14.5556 15.4422 14.7338 15.347 14.8736 15.2071C15.0135 15.0673 15.1087 14.8891 15.1473 14.6951C15.1859 14.5011 15.1661 14.3 15.0904 14.1173C15.0147 13.9346 14.8865 13.7784 14.7221 13.6685C14.5576 13.5587 14.3643 13.5 14.1665 13.5C13.9013 13.5 13.6469 13.6054 13.4594 13.7929C13.2719 13.9804 13.1665 14.2348 13.1665 14.5ZM9.1665 10.5C9.1665 10.6978 9.22515 10.8911 9.33503 11.0556C9.44492 11.22 9.60109 11.3482 9.78382 11.4239C9.96655 11.4996 10.1676 11.5194 10.3616 11.4808C10.5556 11.4422 10.7338 11.347 10.8736 11.2071C11.0135 11.0673 11.1087 10.8891 11.1473 10.6951C11.1859 10.5011 11.1661 10.3 11.0904 10.1173C11.0147 9.93459 10.8865 9.77841 10.7221 9.66853C10.5576 9.55865 10.3643 9.5 10.1665 9.5C9.90129 9.5 9.64693 9.60536 9.4594 9.79289C9.27186 9.98043 9.1665 10.2348 9.1665 10.5ZM19.1665 5.5V19.5C20.4921 19.4984 21.7629 18.9711 22.7003 18.0338C23.6376 17.0964 24.1649 15.8256 24.1665 14.5V10.5C24.1649 9.17441 23.6376 7.90356 22.7003 6.96622C21.7629 6.02888 20.4921 5.50159 19.1665 5.5Z" fill="white"/>
</g>
<defs>
<clipPath id="clip0_3684_2115">
<rect width="24" height="24" fill="white" transform="translate(0.166504 0.5)"/>
</clipPath>
</defs>
</svg>
