<svg width="25" height="24" viewBox="0 0 25 24" fill="none" xmlns="http://www.w3.org/2000/svg">
<path d="M16.333 9V7H8.33301V9C7.00741 9.00159 5.73657 9.52888 4.79923 10.4662C3.86189 11.4036 3.3346 12.6744 3.33301 14V19C3.3346 20.3256 3.86189 21.5964 4.79923 22.5338C5.73657 23.4711 7.00741 23.9984 8.33301 24H16.333C17.6586 23.9984 18.9295 23.4711 19.8668 22.5338C20.8041 21.5964 21.3314 20.3256 21.333 19V14C21.3314 12.6744 20.8041 11.4036 19.8668 10.4662C18.9295 9.52888 17.6586 9.00159 16.333 9ZM15.333 17H13.333V19C13.333 19.2652 13.2277 19.5196 13.0401 19.7071C12.8526 19.8946 12.5982 20 12.333 20C12.0678 20 11.8134 19.8946 11.6259 19.7071C11.4384 19.5196 11.333 19.2652 11.333 19V17H9.33301C9.06779 17 8.81344 16.8946 8.6259 16.7071C8.43836 16.5196 8.33301 16.2652 8.33301 16C8.33301 15.7348 8.43836 15.4804 8.6259 15.2929C8.81344 15.1054 9.06779 15 9.33301 15H11.333V13C11.333 12.7348 11.4384 12.4804 11.6259 12.2929C11.8134 12.1054 12.0678 12 12.333 12C12.5982 12 12.8526 12.1054 13.0401 12.2929C13.2277 12.4804 13.333 12.7348 13.333 13V15H15.333C15.5982 15 15.8526 15.1054 16.0401 15.2929C16.2277 15.4804 16.333 15.7348 16.333 16C16.333 16.2652 16.2277 16.5196 16.0401 16.7071C15.8526 16.8946 15.5982 17 15.333 17ZM15.833 5H8.83301C8.16997 5 7.53408 4.73661 7.06524 4.26777C6.5964 3.79893 6.33301 3.16304 6.33301 2.5C6.33301 1.83696 6.5964 1.20107 7.06524 0.732233C7.53408 0.263392 8.16997 0 8.83301 0L15.833 0C16.496 0 17.1319 0.263392 17.6008 0.732233C18.0696 1.20107 18.333 1.83696 18.333 2.5C18.333 3.16304 18.0696 3.79893 17.6008 4.26777C17.1319 4.73661 16.496 5 15.833 5Z" fill="white"/>
</svg>
