<svg width="25" height="25" viewBox="0 0 25 25" fill="none" xmlns="http://www.w3.org/2000/svg">
<path d="M8.4 12.173C5.7375 12.173 3.6 10.0355 3.6 7.37305C3.6 4.74805 5.7375 2.57305 8.4 2.57305C11.025 2.57305 13.2 4.74805 13.2 7.37305C13.2 10.0355 11.025 12.173 8.4 12.173ZM11.7375 13.373C14.5125 13.373 16.8 15.6605 16.8 18.4355V19.973C16.8 20.9855 15.975 21.773 15 21.773H1.8C0.7875 21.773 0 20.9855 0 19.973V18.4355C0 15.6605 2.25 13.373 5.025 13.373H5.6625C6.4875 13.7855 7.425 13.973 8.4 13.973C9.375 13.973 10.275 13.7855 11.1 13.373H11.7375ZM23.85 8.57305C24.0375 8.76055 24.0375 9.02305 23.85 9.21055L18.5625 14.4605C18.375 14.648 18.1125 14.648 17.925 14.4605L14.85 11.3855C14.7 11.198 14.7 10.898 14.85 10.748L15.9 9.69805C16.0875 9.51055 16.3875 9.51055 16.5375 9.69805L18.2625 11.423L22.2 7.52305C22.35 7.33555 22.65 7.33555 22.8 7.52305L23.85 8.57305Z" fill="white"/>
</svg>
