<svg width="24" height="25" viewBox="0 0 24 25" fill="none" xmlns="http://www.w3.org/2000/svg">
<path d="M8.1375 15.8906C8.625 16.4156 9.3375 16.6781 10.05 16.6781C10.5375 16.6781 10.9875 16.5656 11.4 16.3406L9.4125 21.1406C9.2625 21.5156 8.7375 21.6281 8.4375 21.2906L7.0875 19.8656L5.1 19.9406C4.6875 19.9781 4.35 19.5281 4.5375 19.1156L6.225 14.9531C6.525 15.1781 6.825 15.3656 7.2 15.4406C7.95 15.6656 7.8 15.5531 8.1375 15.8906ZM18.825 19.1156C19.0125 19.5281 18.675 19.9781 18.2625 19.9406L16.275 19.8656L14.925 21.2906C14.625 21.6281 14.1 21.5156 13.95 21.1406L11.9625 16.3406C12.375 16.5656 12.825 16.6781 13.3125 16.6781C14.025 16.6781 14.7375 16.4156 15.225 15.8906C15.5625 15.5531 15.375 15.6656 16.2 15.4406C16.5375 15.3656 16.8375 15.1781 17.1375 14.9531L18.825 19.1156ZM14.3625 15.0281C13.8375 15.5531 13.0875 15.6281 12.4875 15.2531C12.2625 15.1031 11.9625 15.0281 11.6625 15.0281C11.4 15.0281 11.1 15.1031 10.875 15.2531C10.275 15.6281 9.525 15.5531 9.0375 15.0281C8.475 14.4656 8.4 14.5031 7.575 14.2781C7.05 14.1656 6.6375 13.7531 6.4875 13.1906C6.225 12.1406 6.3 12.2531 5.5125 11.5031C5.1375 11.0906 4.9875 10.5281 5.1375 10.0031C5.4 8.95312 5.4 9.10312 5.1375 8.01562C4.9875 7.49062 5.1375 6.92812 5.5125 6.55312C6.3 5.76562 6.225 5.87812 6.4875 4.82812C6.6375 4.30312 7.05 3.89062 7.575 3.74062C8.625 3.44062 8.475 3.51562 9.2625 2.72812C9.6375 2.35312 10.2 2.20312 10.725 2.35312C11.7375 2.61562 11.625 2.61562 12.6375 2.35312C13.1625 2.20312 13.725 2.35312 14.1 2.72812C14.8875 3.51562 14.7375 3.44062 15.7875 3.74062C16.3125 3.89062 16.725 4.30312 16.875 4.82812C17.1375 5.87812 17.0625 5.76562 17.85 6.55312C18.225 6.92812 18.375 7.49062 18.225 8.01562C17.9625 9.10312 17.9625 8.95312 18.225 10.0031C18.375 10.5281 18.225 11.0906 17.85 11.5031C17.0625 12.2531 17.1375 12.1406 16.875 13.1906C16.725 13.7531 16.3125 14.1656 15.7875 14.2781C15 14.5031 14.925 14.4656 14.3625 15.0281ZM8.1375 8.87812C8.1375 10.8656 9.7125 12.4781 11.7 12.4781C13.65 12.4781 15.225 10.8656 15.225 8.87812C15.225 6.89062 13.65 5.27812 11.7 5.27812C9.7125 5.27812 8.1375 6.89062 8.1375 8.87812Z" fill="white"/>
</svg>
