<svg width="24" height="25" viewBox="0 0 24 25" fill="none" xmlns="http://www.w3.org/2000/svg">
<path d="M9.2 10.373V14.573C9.2 15.248 8.6375 15.773 8 15.773H7.4C6.05 15.773 5 14.723 5 13.373V11.573C5 10.2605 6.05 9.17305 7.4 9.17305H8C8.6375 9.17305 9.2 9.73555 9.2 10.373ZM15.8 15.773H15.2C14.525 15.773 14 15.248 14 14.573V10.373C14 9.73555 14.525 9.17305 15.2 9.17305H15.8C17.1125 9.17305 18.2 10.2605 18.2 11.573V13.373C18.2 14.723 17.1125 15.773 15.8 15.773ZM11.6 2.57305C16.925 2.57305 21.0125 7.03555 21.2 12.173V18.398C21.2 20.273 19.6625 21.773 17.7875 21.773H11C9.9875 21.773 9.2 20.9855 9.2 19.973C9.2 18.998 9.9875 18.173 11 18.173H12.2C13.175 18.173 14 18.998 14 19.973H17.7875C18.6875 19.973 19.4 19.298 19.4 18.398C19.4 18.398 19.3625 12.2855 19.3625 12.173H19.4C19.4 7.89805 15.875 4.37305 11.6 4.37305C7.2875 4.37305 3.8 7.89805 3.8 12.173V12.773C3.8 13.1105 3.5 13.373 3.2 13.373H2.6C2.2625 13.373 2 13.1105 2 12.773V12.173C2.15 7.03555 6.2375 2.57305 11.6 2.57305Z" fill="white"/>
</svg>
